<svg xmlns="http://www.w3.org/2000/svg" width="48" height="48" viewBox="0 0 48 48" fill="none"><g><path d="M23.19 18.3021C23.5028 18.5991 24.0228 18.5391 24.2605 18.1805L28.9403 11.1178C29.1549 10.7941 29.0662 10.3575 28.7425 10.1429C28.4192 9.9287 27.9826 10.0173 27.768 10.3407L23.5508 16.7054L21.2074 14.4803C20.9258 14.213 20.4808 14.2247 20.2131 14.5063C19.9458 14.788 19.9575 15.2329 20.2391 15.5002C20.2388 15.5002 23.1875 18.2999 23.19 18.3021V18.3021Z" fill="#B2C4DC"></path><path d="M23.6696 29.0266C23.804 29.0881 23.9527 29.1207 24.1006 29.1207H24.1065C24.257 29.12 24.4079 29.0856 24.5427 29.0211C35.2346 23.9363 37.0466 12.9653 37.3469 9.724C37.4157 8.98389 36.999 8.29468 36.3101 8.00903C34.1817 7.12537 32.7348 5.14929 32.5341 2.85205C32.4722 2.1449 31.868 1.59375 31.1561 1.59375H31.1476L16.7431 1.67834C16.0169 1.68237 15.4269 2.23425 15.3713 2.96191C15.194 5.25989 13.7684 7.25025 11.6506 8.15625C10.9687 8.44776 10.5622 9.14063 10.6398 9.88037C10.9782 13.118 12.9188 24.0674 23.6696 29.0266V29.0266ZM12.2035 9.44898C14.8003 8.33862 16.5497 5.90076 16.772 3.08423L31.1352 3C31.3904 5.8103 33.1647 8.22583 35.771 9.30762C35.8875 9.35633 35.9582 9.47132 35.9468 9.59436C35.6648 12.6321 33.9777 22.8746 24.0981 27.6746C14.1617 22.9915 12.3559 12.7687 12.038 9.73425C12.0252 9.61157 12.0918 9.49695 12.2035 9.44898Z" fill="#B2C4DC"></path><path d="M13.9594 13.3469C14.0443 13.6597 14.441 13.9461 14.8225 13.841C15.1968 13.7377 15.4184 13.3528 15.3166 12.9782C15.1375 12.3182 14.987 11.6492 14.8687 10.9863C16.7788 9.74158 18.1964 7.88379 18.8919 5.71399L29.0462 5.6543C29.7669 7.81531 31.2061 9.65699 33.1309 10.879C33.0207 11.5437 32.8778 12.215 32.7061 12.8774C32.6087 13.2535 32.8346 13.6373 33.2104 13.7348C33.5868 13.8322 33.9703 13.6062 34.0677 13.2301C34.2691 12.4523 34.4331 11.6627 34.5547 10.8834C34.6228 10.448 34.4236 10.0199 34.0479 9.79285C32.2549 8.70997 30.9296 7.01111 30.3162 5.0094C30.1781 4.55933 29.7537 4.24658 29.2828 4.24658H29.2762L18.6451 4.30884C18.1712 4.31177 17.7471 4.63074 17.6142 5.08411C17.0246 7.09278 15.719 8.80701 13.9389 9.91114C13.5657 10.1422 13.372 10.5725 13.4449 11.0076C13.576 11.785 13.7488 12.572 13.9594 13.3469V13.3469Z" fill="#B2C4DC"></path><path d="M32.6463 15.4318C32.2874 15.2831 31.8765 15.4545 31.7282 15.8134C30.1033 19.7516 27.531 22.7457 24.0806 24.7163C20.6034 22.7838 17.9938 19.815 16.3231 15.8892C16.1708 15.5321 15.7577 15.3659 15.4007 15.5178C15.0432 15.6698 14.877 16.0829 15.029 16.4399C16.8523 20.7239 19.7249 23.9535 23.5668 26.0384C23.7287 26.1266 23.9059 26.1702 24.0828 26.1702C24.2641 26.1702 24.445 26.1244 24.6098 26.0325C28.4228 23.9052 31.255 20.6474 33.0282 16.3495C33.1765 15.9906 33.0055 15.5797 32.6463 15.4318Z" fill="#B2C4DC"></path><path d="M4.51135 37.5725C3.13989 37.5725 2.02368 38.6884 2.02368 40.0602C2.02368 41.432 3.13989 42.5478 4.51135 42.5478C5.88318 42.5478 6.99939 41.432 6.99939 40.0602C6.99939 38.6884 5.88355 37.5725 4.51135 37.5725V37.5725ZM4.51135 41.1416C3.91516 41.1416 3.42993 40.6567 3.42993 40.0602C3.42993 39.464 3.91516 38.9788 4.51135 38.9788C5.10791 38.9788 5.59314 39.464 5.59314 40.0602C5.59314 40.6567 5.10791 41.1416 4.51135 41.1416Z" fill="#B2C4DC"></path><path d="M47.4957 30.6888C46.5945 29.3646 44.7799 29.0138 43.4509 29.9066L34.259 36.0586L32.2969 35.9484L32.2467 35.4459C32.0511 33.4783 30.5471 31.9105 28.5893 31.6337C28.5769 31.6318 28.5648 31.6304 28.5524 31.6293L18.6478 30.7614C18.3127 30.709 17.2401 30.401 14.2928 28.7106C12.761 27.832 11.035 27.3362 9.28161 27.2688V25.4293C9.28161 24.5061 8.53088 23.7554 7.60766 23.7554H1.67395C0.751098 23.7554 0 24.5065 0 25.4293V43.5461C0 44.469 0.751098 45.2201 1.67395 45.2201H7.60766C8.53051 45.2201 9.28161 44.469 9.28161 43.5461V43.047L17.9396 46.3257C17.9586 46.333 18.6617 46.596 19.9545 46.474C19.9581 46.4736 34.3403 44.4001 34.3403 44.4001C34.344 44.3998 34.3473 44.3991 34.3509 44.3983C35.5799 44.2024 36.739 43.6827 37.7032 42.8965C37.712 42.8892 37.7204 42.8818 37.7289 42.8745L47.02 34.5179C48.115 33.5457 48.3197 31.8995 47.4957 30.6888V30.6888ZM46.0829 33.4695L36.8016 41.8173C36.0333 42.4402 35.1112 42.8522 34.1341 43.0089L19.7589 45.0813C19.7556 45.0817 19.7508 45.0824 19.7465 45.0831C19.7443 45.0835 19.7417 45.0839 19.7395 45.0842C19.3096 45.152 18.8617 45.1234 18.408 44.9993L9.28161 41.5433V33.5134C9.28161 33.1249 8.96667 32.8103 8.57849 32.8103C8.18994 32.8103 7.87536 33.1249 7.87536 33.5134V43.5461C7.87536 43.6937 7.75525 43.8138 7.60766 43.8138H1.67395C1.52637 43.8138 1.40625 43.6937 1.40625 43.5461V25.4293C1.40625 25.2817 1.52637 25.1616 1.67395 25.1616H7.60766C7.75525 25.1616 7.87536 25.2817 7.87536 25.4293V30.3373C7.87536 30.7258 8.1903 31.0404 8.57849 31.0404C8.96704 31.0404 9.28161 30.7255 9.28161 30.3373V28.6765C10.79 28.7432 12.2739 29.1738 13.593 29.9308C17.1478 31.9695 18.1406 32.1101 18.4669 32.1563C18.4794 32.1581 18.4914 32.1592 18.5039 32.1606L28.4095 33.0286C29.7154 33.2216 30.7167 34.2704 30.8474 35.5851L30.8848 35.9597L17.6232 36.7786C17.614 36.7778 17.6049 36.7771 17.5968 36.7764C17.1669 36.7376 16.7787 36.5343 16.5029 36.204C16.2543 35.9055 15.8108 35.8652 15.5127 36.1143C15.2142 36.3629 15.1739 36.8064 15.423 37.1045C15.939 37.7234 16.667 38.0936 17.4716 38.1771C17.9059 38.2225 31.6582 37.3209 31.6582 37.3209L34.415 37.4758C34.5674 37.4846 34.7186 37.4429 34.8453 37.3579L44.2342 31.0745C44.9238 30.6112 45.8653 30.7928 46.333 31.4799C46.7604 32.1083 46.6542 32.9623 46.0829 33.4695V33.4695Z" fill="#B2C4DC"></path></g><defs><rect width="48" height="48" fill="white"></rect></defs></svg>